<svg width="60" height="61" viewBox="0 0 60 61" fill="none" xmlns="http://www.w3.org/2000/svg">
<path d="M12.5 18C15.2614 18 17.5 15.7614 17.5 13C17.5 10.2386 15.2614 8 12.5 8C9.73857 8 7.5 10.2386 7.5 13C7.5 15.7614 9.73857 18 12.5 18Z" fill="white"/>
<path d="M30 18C32.7614 18 35 15.7614 35 13C35 10.2386 32.7614 8 30 8C27.2386 8 25 10.2386 25 13C25 15.7614 27.2386 18 30 18Z" fill="white"/>
<path d="M47.5 18C50.2614 18 52.5 15.7614 52.5 13C52.5 10.2386 50.2614 8 47.5 8C44.7386 8 42.5 10.2386 42.5 13C42.5 15.7614 44.7386 18 47.5 18Z" fill="white"/>
<path d="M12.5 35.5C15.2614 35.5 17.5 33.2614 17.5 30.5C17.5 27.7386 15.2614 25.5 12.5 25.5C9.73857 25.5 7.5 27.7386 7.5 30.5C7.5 33.2614 9.73857 35.5 12.5 35.5Z" fill="white"/>
<path d="M30 35.5C32.7614 35.5 35 33.2614 35 30.5C35 27.7386 32.7614 25.5 30 25.5C27.2386 25.5 25 27.7386 25 30.5C25 33.2614 27.2386 35.5 30 35.5Z" fill="white"/>
<path d="M47.5 35.5C50.2614 35.5 52.5 33.2614 52.5 30.5C52.5 27.7386 50.2614 25.5 47.5 25.5C44.7386 25.5 42.5 27.7386 42.5 30.5C42.5 33.2614 44.7386 35.5 47.5 35.5Z" fill="white"/>
<path d="M12.5 53C15.2614 53 17.5 50.7614 17.5 48C17.5 45.2386 15.2614 43 12.5 43C9.73857 43 7.5 45.2386 7.5 48C7.5 50.7614 9.73857 53 12.5 53Z" fill="white"/>
<path d="M30 53C32.7614 53 35 50.7614 35 48C35 45.2386 32.7614 43 30 43C27.2386 43 25 45.2386 25 48C25 50.7614 27.2386 53 30 53Z" fill="white"/>
<path d="M47.5 53C50.2614 53 52.5 50.7614 52.5 48C52.5 45.2386 50.2614 43 47.5 43C44.7386 43 42.5 45.2386 42.5 48C42.5 50.7614 44.7386 53 47.5 53Z" fill="white"/>
</svg>
